<svg width="282" height="64" viewBox="0 0 282 64" fill="none" xmlns="http://www.w3.org/2000/svg">
<path d="M97.2718 4.01016C83.8095 3.98284 72.8967 4.01927 59.4799 4.01927C57.8546 3.96007 56.5343 4.24697 55.5736 5.00293C54.613 5.75889 54.2352 6.65603 53.7981 7.41655L53.7753 7.45298L47.8432 18.3689C47.7066 18.592 47.5791 18.8015 47.4471 19.0247C47.315 18.7924 47.1603 18.5556 47.0555 18.3734L41.2372 7.71711C41.2144 7.67612 41.1917 7.63514 41.1644 7.59871C40.6818 6.86096 40.445 6.14143 39.6756 5.32171C38.9062 4.49744 37.5814 4.02382 36.0972 4.02382H21.8791C20.6499 4.0557 19.3888 4.49744 18.5875 5.57673C17.8955 6.51486 17.8409 7.83551 18.287 9.015C18.3235 9.20171 18.3917 9.38387 18.4919 9.55237L41.0369 48.6939C42.4118 51.194 44.761 52.7515 47.2786 52.7287C49.7917 52.706 52.1546 51.1166 53.5887 48.4434L68.13 23.8701V49.2449C68.1072 50.0874 68.3849 50.9117 68.9176 51.5811C69.5504 52.3052 70.4746 52.7242 71.4444 52.7287H87.957C89.7098 52.7287 91.2167 51.5083 91.2167 49.632V25.9604L104.374 48.4662C105.713 50.9208 107.825 52.4555 110.115 52.6969C112.405 52.9382 114.727 51.8225 116.243 49.8187C116.288 49.7595 116.329 49.6958 116.366 49.632L139.321 9.31101L139.298 9.35199C139.976 8.17251 139.89 6.71523 139.07 5.62683C138.255 4.61584 137.003 4.03293 135.683 4.06026L121.356 4.01472H121.201C119.94 4.11946 118.779 4.72969 118.155 5.4811C117.531 6.23251 117.286 6.87462 116.839 7.53495C116.817 7.56683 116.794 7.60326 116.776 7.63969L110.789 18.1776L110.311 18.9017C110.252 18.592 110.151 18.296 110.015 18.0091C109.901 17.7632 109.764 17.531 109.61 17.3078C109.423 17.0072 109.168 16.6065 108.868 16.1329C108.257 15.1902 107.474 13.9652 106.669 12.7219C105.043 10.2309 103.436 7.75354 102.935 7.03857L102.904 6.99303C102.457 6.39645 102.207 5.68603 101.255 4.96195C100.299 4.23786 99.0428 4.01016 97.2809 4.01016H97.2718Z" fill="#F4F4F8"/>
<path d="M20.0884 8.66124L42.6288 47.8165C44.9052 51.956 49.6719 52.1245 52.1075 47.5296L75.3218 8.11477C76.1731 6.69847 75.4128 5.66472 74.1608 5.68293H59.5376C56.6557 5.55998 56.3279 6.57096 55.3855 8.20129L49.4442 19.1354C49.121 19.6455 48.2377 21.4716 47.4866 21.4762C46.79 21.4261 45.8931 19.7001 45.5835 19.1582L39.7561 8.47453C38.6179 6.74401 38.6042 5.69204 36.1594 5.69204H21.9914C20.3525 5.73758 19.1096 6.87153 20.0884 8.67491" fill="#DC0000"/>
<path d="M114.883 48.732C112.448 51.9471 108.209 51.7604 105.946 47.5525L92.1927 24.0175C91.6009 22.9792 91.5645 21.9044 93.208 21.9044H108.036C109.197 21.9044 109.584 21.7632 110.303 21.3352C110.832 21.0027 111.287 20.5746 111.642 20.0646L112.338 19.0126L118.353 8.41549C119.4 6.83981 119.495 5.82882 121.398 5.66943L135.73 5.71953C137.474 5.71953 138.576 7.1768 137.829 8.41549L114.879 48.732H114.883Z" fill="#000095"/>
<path d="M69.9453 23.3537V49.1839C69.9453 50.1767 70.4825 50.9463 71.5069 50.9463H88.0104C88.7662 50.9463 89.5128 50.3133 89.5128 49.571V22.2471C89.5128 21.0904 89.918 20.4391 91.6298 20.4346H105.848C107.218 20.4346 109.317 20.3754 108.488 18.6768C108.284 18.2532 102.338 9.07694 101.541 7.93845C100.43 6.46295 100.558 5.65234 97.3344 5.65234C97.3344 5.65234 80.758 5.65234 80.6806 5.67056C78.5135 5.75709 78.4452 6.77718 77.348 8.40751L71.6617 17.898C70.4825 19.9701 70.0364 19.8881 69.959 23.3355" fill="#009500"/>
<path d="M197.86 37.351L195.921 50.9537H189.133L191.077 37.351H197.86Z" fill="#F4F4F8"/>
<path d="M156.909 28.324C154.984 28.324 153.103 28.8887 151.423 29.8678L151.646 28.324H142.596L138.07 60.0016H147.121L148.655 49.2769C150.108 50.338 151.906 50.9528 153.918 50.9528C159.7 50.9528 165.059 45.8888 165.883 39.6361C166.711 33.3881 162.691 28.324 156.914 28.324H156.909ZM156.791 39.6361C156.522 42.1363 154.792 44.1628 152.926 44.1628C151.059 44.1628 149.762 42.1363 150.03 39.6361C150.299 37.136 152.029 35.1095 153.891 35.1095C155.753 35.1095 157.055 37.136 156.786 39.6361H156.791Z" fill="#F4F4F8"/>
<path d="M189.985 30.7035L183.616 37.0791C183.134 35.8905 182.196 35.1072 181.039 35.1072C179.277 35.1072 177.634 36.9197 177.238 39.224C177.215 39.347 175.562 50.946 175.562 50.946H166.512L169.744 28.3172H178.795L178.59 29.7472C180.22 28.8364 182.027 28.3172 183.876 28.3172C186.298 28.3172 188.41 29.2052 189.99 30.6989L189.985 30.7035Z" fill="#F4F4F8"/>
<path d="M264.737 37.3705C264.427 32.2063 260.416 28.3172 254.953 28.3172C251.106 28.3172 247.436 30.239 244.978 33.1809C243.94 34.4195 243.116 35.8404 242.588 37.3751C242.333 38.1037 242.151 38.8597 242.041 39.6384C241.932 40.4126 241.9 41.1731 241.946 41.9018C242.255 47.066 246.266 50.9551 251.73 50.9551C254.666 50.9551 257.502 49.8302 259.779 47.9904L255.235 43.4456C254.47 43.901 253.596 44.1651 252.699 44.1651C251.033 44.1651 249.713 43.2543 249.13 41.9018H264.095C264.345 41.1686 264.532 40.4126 264.641 39.6384C264.75 38.8642 264.782 38.1083 264.737 37.3751V37.3705ZM249.772 37.3705C250.737 36.018 252.321 35.1072 253.983 35.1072C255.645 35.1072 256.97 36.018 257.553 37.3705H249.772Z" fill="#F4F4F8"/>
<path d="M194.056 16.4329L205.939 28.3233L191.074 37.3721L194.056 16.4329Z" fill="#F4F4F8"/>
<path d="M240.636 37.3478C240.59 36.569 240.472 35.8176 240.28 35.1072C239.197 31.1088 235.887 28.3172 231.608 28.3172C229.327 28.3172 227.114 29.1096 225.22 30.4576C223.681 29.1096 221.674 28.3172 219.393 28.3172C217.817 28.3172 216.27 28.6952 214.84 29.3737L214.99 28.3172H205.939L202.707 50.946H211.758L213.747 37.029C213.907 35.9269 214.849 35.1072 215.964 35.1072C217.326 35.1072 218.373 36.314 218.182 37.662L216.288 50.946H225.339L227.323 37.029C227.483 35.9269 228.425 35.1072 229.541 35.1072C230.902 35.1072 231.949 36.314 231.758 37.662L229.859 50.946H238.91C238.91 50.946 240.608 39.1602 240.626 38.928C240.667 38.3906 240.672 37.8624 240.64 37.3478H240.636Z" fill="#F4F4F8"/>
</svg>
